<svg width="157" height="43" viewBox="0 0 157 43" fill="none" xmlns="http://www.w3.org/2000/svg">
<g clip-path="url(#clip0_365_92)">
<path d="M37.9507 0.0358887V33.1701L42.2328 33.1864V17.4151H52.5785V13.2409H42.2328V4.21015H55.7002V0.0358887H37.9507ZM63.4309 6.76019C64.9836 6.76019 66.2257 5.50953 66.2257 3.98276C66.2257 2.45599 64.9672 1.20533 63.4309 1.20533C61.8782 1.20533 60.6361 2.45599 60.6361 3.98276C60.6361 5.50953 61.8945 6.76019 63.4309 6.76019ZM61.2571 10.9344V33.1701H65.5392V10.9344H61.2571Z" fill="black"/>
<path fill-rule="evenodd" clip-rule="evenodd" d="M81.4419 10.2847C75.7379 10.2847 71.7663 15.0761 71.7663 20.7609C71.7663 26.4457 75.7379 31.2372 81.4419 31.2372C84.0569 31.2372 86.198 30.2302 87.767 28.6059V31.5458C87.767 35.2328 84.8578 38.3026 81.0497 38.3026C79.6768 38.3026 78.3202 37.7828 77.2415 37.0357L75.0841 40.7389C76.8002 41.8434 78.8432 42.4768 81.0333 42.4768C87.1133 42.4768 92.0328 37.5879 92.0328 31.5458V10.9344H87.767V12.9159C86.198 11.2917 84.0569 10.2847 81.4419 10.2847V10.2847ZM76.0648 20.7609C76.0648 17.2364 78.7779 14.4589 81.9159 14.4589C85.0539 14.4589 87.767 17.2364 87.767 20.7609C87.767 24.2855 85.0539 27.0629 81.9159 27.0629C78.7779 27.0629 76.0648 24.2855 76.0648 20.7609V20.7609Z" fill="black"/>
<path d="M107.511 14.4589C104.977 14.4589 102.918 16.6029 102.918 19.1205V33.17H98.6357V10.9344H102.918V12.9646C104.176 11.3567 106.023 10.2847 108.442 10.2847C111.449 10.2847 113.754 11.7627 115.094 14.0366C116.581 11.8439 119 10.2847 121.926 10.2847C126.813 10.2847 129.853 14.1991 129.869 19.0393V33.17H125.587V19.1042C125.587 16.5867 123.528 14.4427 120.994 14.4427C118.461 14.4427 116.402 16.5867 116.402 19.1042V33.17H112.12V19.1042C112.103 16.5867 110.044 14.4589 107.511 14.4589V14.4589Z" fill="black"/>
<path fill-rule="evenodd" clip-rule="evenodd" d="M152.718 13.4519C150.806 11.4866 148.191 10.2847 145.167 10.2847C138.793 10.2847 134.249 15.6609 134.249 22.0603C134.249 28.4598 138.777 33.836 145.167 33.836C148.191 33.836 150.806 32.6178 152.718 30.6687V33.17H157V10.9344H152.718V13.4519ZM138.548 22.0603C138.548 17.8211 141.816 14.4589 145.641 14.4589C149.449 14.4589 152.734 17.8048 152.734 22.0603C152.734 26.2995 149.465 29.6617 145.641 29.6617C141.816 29.6455 138.548 26.2995 138.548 22.0603V22.0603Z" fill="black"/>
<path d="M14.399 21.5081C14.399 17.5612 17.6188 14.3452 21.6067 14.3452C25.5783 14.3452 28.8144 17.5449 28.8144 21.5081C28.8144 25.4549 25.5946 28.6709 21.6067 28.6709C17.6351 28.6709 14.399 25.4549 14.399 21.5081Z" fill="#1ABCFE"/>
<path d="M0 35.8176C0 31.8708 3.21976 28.6548 7.20768 28.6548H14.4154V35.8176C14.4154 39.7645 11.1956 42.9805 7.20768 42.9805C3.21976 42.9805 0 39.7807 0 35.8176V35.8176Z" fill="#0ACF83"/>
<path d="M14.399 0.0357735V14.3452H21.6067C25.5783 14.3452 28.8144 11.1455 28.8144 7.18237C28.8144 3.2355 25.5946 0.0195312 21.6067 0.0195312H14.399V0.0357735Z" fill="#FF7262"/>
<path d="M0 7.19873C0 11.1456 3.21976 14.3616 7.20768 14.3616H14.4154V0.0358887H7.20768C3.21976 0.0358887 0 3.23562 0 7.19873Z" fill="#F24E1E"/>
<path d="M0 21.5081C0 25.4549 3.21976 28.6709 7.20768 28.6709H14.4154V14.3452H7.20768C3.21976 14.3452 0 17.5612 0 21.5081Z" fill="#A259FF"/>
</g>
<defs>
<clipPath id="clip0_365_92">
<rect width="157" height="43" fill="white"/>
</clipPath>
</defs>
</svg>
