<svg width="43" height="43" viewBox="0 0 43 43" fill="none" xmlns="http://www.w3.org/2000/svg">
<g clip-path="url(#clip0_365_104)">
<path d="M0 21.5V0H21.5H43V21.5V43H21.5H0V21.5ZM18.824 39.4558C21.4099 39.0089 22.9673 37.3553 23.3133 34.6894C23.3481 34.4212 23.3732 31.2432 23.3744 26.9596L23.3763 19.6853H21.377H19.3777L19.3766 26.5597C19.376 30.6743 19.351 33.6672 19.3144 34.0145C19.1933 35.165 18.7631 35.7249 17.8521 35.918C16.5618 36.1915 15.6009 35.6738 14.812 34.28C14.7114 34.1024 14.6001 33.9571 14.5646 33.9571C14.5064 33.9571 11.4828 35.7583 11.3602 35.8661C11.2323 35.9784 11.9981 37.1497 12.595 37.7549C14.061 39.2411 16.3886 39.8767 18.824 39.4558H18.824ZM34.2954 39.4875C35.9397 39.2802 37.2799 38.645 38.2623 37.6071C38.6649 37.1819 38.8161 36.9638 39.0594 36.4578C39.459 35.6269 39.558 35.2065 39.5976 34.1724C39.6692 32.3006 39.1746 30.9767 37.9759 29.8317C37.1167 29.0109 36.0334 28.3769 33.9878 27.4976C31.89 26.5959 31.2446 26.1835 30.9371 25.5484C30.7236 25.1073 30.7346 24.4405 30.9632 23.975C31.3017 23.2856 31.9551 22.9671 32.9186 23.0221C33.8367 23.0744 34.4769 23.4615 35.0358 24.3023L35.3146 24.7217L36.7233 23.8183C37.4981 23.3214 38.203 22.8595 38.2897 22.7918L38.4473 22.6688L38.1 22.154C37.2293 20.8633 36.0769 20.0439 34.6211 19.6803C33.8858 19.4966 32.2358 19.4491 31.4349 19.5885C30.1155 19.8181 29.1816 20.2809 28.3222 21.1309C27.5442 21.9003 27.1235 22.6704 26.9056 23.7243C26.7521 24.4666 26.8139 25.8757 27.0318 26.6028C27.5891 28.4618 28.8411 29.6597 31.4142 30.7956C31.9162 31.0172 32.7001 31.3636 33.1563 31.5653C34.9944 32.3782 35.5765 32.9609 35.5765 33.9878C35.5765 34.9379 34.9714 35.599 33.8297 35.8966C33.2181 36.0559 32.0518 35.9996 31.4113 35.7798C30.5386 35.4803 29.7025 34.8063 29.1279 33.9391C28.9623 33.6892 28.8637 33.5936 28.7974 33.6191C28.6067 33.6923 25.5908 35.4592 25.5908 35.4977C25.5908 35.6388 26.5195 36.9004 26.9187 37.3017C28.6889 39.0811 31.324 39.862 34.2954 39.4875Z" fill="#EED94D"/>
<path d="M16.6402 39.5459C15.0613 39.4299 13.616 38.7899 12.595 37.7548C11.998 37.1496 11.2323 35.9783 11.3601 35.8659C11.4828 35.7582 14.5063 33.957 14.5645 33.957C14.6001 33.957 14.7114 34.1023 14.8119 34.2799C15.6008 35.6737 16.5618 36.1914 17.8521 35.9179C18.7631 35.7248 19.1932 35.1649 19.3144 34.0144C19.351 33.6671 19.3759 30.6742 19.3766 26.5596L19.3777 19.6852H21.3769H23.3762L23.3743 26.9595C23.3732 31.2431 23.3481 34.421 23.3133 34.6892C22.8756 38.061 20.4504 39.8261 16.6402 39.5459H16.6402ZM32.1689 39.5503C29.4644 39.3622 27.3554 38.2065 26.014 36.1775C25.7812 35.8254 25.5908 35.5195 25.5908 35.4976C25.5908 35.459 28.6066 33.6922 28.7974 33.619C28.8636 33.5935 28.9623 33.689 29.1279 33.939C29.7025 34.8062 30.5385 35.4802 31.4113 35.7797C32.0518 35.9995 33.2181 36.0558 33.8296 35.8965C34.9714 35.5989 35.5765 34.9378 35.5765 33.9877C35.5765 32.9608 34.9943 32.3781 33.1563 31.5652C32.7001 31.3635 31.9161 31.0171 31.4141 30.7955C28.8411 29.6596 27.5891 28.4617 27.0318 26.6027C26.8138 25.8756 26.752 24.4665 26.9056 23.7242C27.1235 22.6703 27.5441 21.9002 28.3221 21.1308C29.1816 20.2808 30.1155 19.818 31.4349 19.5884C32.2358 19.449 33.8858 19.4965 34.6211 19.6802C36.0769 20.0438 37.2293 20.8632 38.1 22.1539L38.4473 22.6687L38.2896 22.7917C38.2029 22.8594 37.4981 23.3213 36.7233 23.8182L35.3146 24.7216L35.0358 24.3022C34.4768 23.4614 33.8366 23.0743 32.9186 23.022C31.9551 22.967 31.3017 23.2854 30.9631 23.9749C30.8159 24.2747 30.7898 24.402 30.7942 24.7968C30.8067 25.9122 31.3308 26.3555 33.9878 27.4975C36.0334 28.3767 37.1167 29.0108 37.9759 29.8316C39.1746 30.9766 39.6691 32.3005 39.5975 34.1723C39.558 35.2064 39.459 35.6267 39.0594 36.4577C38.0283 38.6016 35.4121 39.7759 32.1689 39.5503V39.5503Z" fill="#31322F"/>
</g>
<defs>
<clipPath id="clip0_365_104">
<rect width="43" height="43" fill="white"/>
</clipPath>
</defs>
</svg>
